<?xml version="1.0" encoding="utf-8"?>
<!-- Generator: Adobe Illustrator 16.0.0, SVG Export Plug-In . SVG Version: 6.00 Build 0)  -->
<!DOCTYPE svg PUBLIC "-//W3C//DTD SVG 1.1//EN" "http://www.w3.org/Graphics/SVG/1.1/DTD/svg11.dtd">
<svg version="1.1" id="Capa_1" xmlns="http://www.w3.org/2000/svg" xmlns:xlink="http://www.w3.org/1999/xlink" x="0px" y="0px"
	 width="612px" height="792px" viewBox="0 0 612 792" enable-background="new 0 0 612 792" xml:space="preserve">
<g>
	<defs>
		<rect id="SVGID_1_" y="48.877" width="612" height="694.245"/>
	</defs>
	<clipPath id="SVGID_2_">
		<use xlink:href="#SVGID_1_"  overflow="visible"/>
	</clipPath>
	<g clip-path="url(#SVGID_2_)">
		<g>
			<g>
				<defs>
					<rect id="SVGID_3_" y="48.877" width="728.11" height="517.768"/>
				</defs>
				<clipPath id="SVGID_4_">
					<use xlink:href="#SVGID_3_"  overflow="visible"/>
				</clipPath>
				<g clip-path="url(#SVGID_4_)">
					<path fill="#202024" d="M0,48.877h728.11v517.768H0V48.877z"/>
					
						<linearGradient id="SVGID_5_" gradientUnits="userSpaceOnUse" x1="60.0811" y1="772.2773" x2="60.081" y2="344.1885" gradientTransform="matrix(1.2095 0 0 -1.2095 8.2351 982.9357)">
						<stop  offset="0" style="stop-color:#18181B"/>
						<stop  offset="1" style="stop-color:#09090B"/>
					</linearGradient>
					<path fill="url(#SVGID_5_)" d="M0,48.877h161.803v517.768H0V48.877z"/>
					<g>
						<path fill="#A1A1AA" d="M16.933,125.075H47.17c0.668,0,1.209,0.542,1.209,1.209l0,0c0,0.668-0.542,1.209-1.209,1.209H16.933
							c-0.668,0-1.209-0.542-1.209-1.209l0,0C15.723,125.617,16.265,125.075,16.933,125.075z"/>
						<path fill="#A1A1AA" d="M16.933,146.846h55.637c0.668,0,1.209,0.542,1.209,1.209l0,0c0,0.668-0.542,1.209-1.209,1.209H16.933
							c-0.668,0-1.209-0.542-1.209-1.209l0,0C15.723,147.387,16.265,146.846,16.933,146.846z"/>
						<path fill="#A1A1AA" d="M16.933,168.617h82.245c0.668,0,1.209,0.542,1.209,1.209l0,0c0,0.668-0.542,1.209-1.209,1.209H16.933
							c-0.668,0-1.209-0.542-1.209-1.209l0,0C15.723,169.158,16.265,168.617,16.933,168.617z"/>
						<path fill="#A1A1AA" d="M16.933,190.387h37.494c0.668,0,1.209,0.542,1.209,1.209l0,0c0,0.668-0.542,1.209-1.209,1.209H16.933
							c-0.668,0-1.209-0.542-1.209-1.209l0,0C15.723,190.929,16.265,190.387,16.933,190.387z"/>
						<path fill="#A1A1AA" d="M16.933,212.158h56.846c0.668,0,1.209,0.542,1.209,1.209l0,0c0,0.668-0.542,1.209-1.209,1.209H16.933
							c-0.668,0-1.209-0.542-1.209-1.209l0,0C15.723,212.7,16.265,212.158,16.933,212.158z"/>
						<path fill="#A1A1AA" d="M16.933,233.929H47.17c0.668,0,1.209,0.542,1.209,1.209l0,0c0,0.668-0.542,1.209-1.209,1.209H16.933
							c-0.668,0-1.209-0.542-1.209-1.209l0,0C15.723,234.47,16.265,233.929,16.933,233.929z"/>
						<path fill="#A1A1AA" d="M16.933,255.7h35.075c0.668,0,1.209,0.542,1.209,1.209l0,0c0,0.668-0.542,1.209-1.209,1.209H16.933
							c-0.668,0-1.209-0.542-1.209-1.209l0,0C15.723,256.241,16.265,255.7,16.933,255.7z"/>
						<path fill="#A1A1AA" d="M16.933,277.47h49.589c0.668,0,1.209,0.542,1.209,1.209l0,0c0,0.668-0.542,1.209-1.209,1.209H16.933
							c-0.668,0-1.209-0.542-1.209-1.209l0,0C15.723,278.012,16.265,277.47,16.933,277.47z"/>
						<path fill="#A1A1AA" d="M16.933,299.241H47.17c0.668,0,1.209,0.542,1.209,1.209l0,0c0,0.668-0.542,1.209-1.209,1.209H16.933
							c-0.668,0-1.209-0.542-1.209-1.209l0,0C15.723,299.783,16.265,299.241,16.933,299.241z"/>
						<path fill="#A1A1AA" d="M16.933,321.012H47.17c0.668,0,1.209,0.542,1.209,1.209l0,0c0,0.668-0.542,1.209-1.209,1.209H16.933
							c-0.668,0-1.209-0.542-1.209-1.209l0,0C15.723,321.553,16.265,321.012,16.933,321.012z"/>
						<path fill="#A1A1AA" d="M16.933,342.783h65.313c0.668,0,1.209,0.542,1.209,1.209l0,0c0,0.668-0.542,1.209-1.209,1.209H16.933
							c-0.668,0-1.209-0.542-1.209-1.209l0,0C15.723,343.324,16.265,342.783,16.933,342.783z"/>
						<defs>
							<filter id="Adobe_OpacityMaskFilter" filterUnits="userSpaceOnUse" x="16.179" y="65.058" width="25.282" height="26.293">
								<feColorMatrix  type="matrix" values="1 0 0 0 0  0 1 0 0 0  0 0 1 0 0  0 0 0 1 0"/>
							</filter>
						</defs>
						<mask maskUnits="userSpaceOnUse" x="16.179" y="65.058" width="25.282" height="26.293" id="mask0_3120_2708">
							<path fill="#09090B" filter="url(#Adobe_OpacityMaskFilter)" d="M0,48.877h161.803v517.768H0V48.877z"/>
						</mask>
						<g mask="url(#mask0_3120_2708)">
							<defs>
								<rect id="SVGID_6_" x="16.179" y="65.058" width="25.282" height="26.293"/>
							</defs>
							<clipPath id="SVGID_7_">
								<use xlink:href="#SVGID_6_"  overflow="visible"/>
							</clipPath>
						</g>
						<g>
							<defs>
								<rect id="SVGID_8_" x="48.379" y="70.648" width="60.474" height="15.723"/>
							</defs>
							<defs>
								<rect id="SVGID_9_" x="570.877" y="85.162" width="8.467" height="8.466"/>
							</defs>
							<clipPath id="SVGID_10_">
								<use xlink:href="#SVGID_8_"  overflow="visible"/>
							</clipPath>
							<clipPath id="SVGID_11_" clip-path="url(#SVGID_10_)">
								<use xlink:href="#SVGID_9_"  overflow="visible"/>
							</clipPath>
							<path clip-path="url(#SVGID_11_)" fill="#A1A1AA" d="M195.332,131.123h149.977c1.67,0,3.023,1.354,3.023,3.024l0,0
								c0,1.67-1.354,3.023-3.023,3.023H195.332c-1.67,0-3.024-1.354-3.024-3.023l0,0
								C192.308,132.476,193.662,131.123,195.332,131.123z"/>
							<path clip-path="url(#SVGID_11_)" fill="#A1A1AA" d="M195.332,194.016h149.977c1.67,0,3.023,1.354,3.023,3.024l0,0
								c0,1.67-1.354,3.024-3.023,3.024H195.332c-1.67,0-3.024-1.354-3.024-3.024l0,0
								C192.308,195.37,193.662,194.016,195.332,194.016z"/>
							<path opacity="0.3" clip-path="url(#SVGID_11_)" fill="#A1A1AA" enable-background="new    " d="M193.518,155.312h227.384
								c0.668,0,1.209,0.542,1.209,1.209l0,0c0,0.668-0.541,1.21-1.209,1.21H193.518c-0.668,0-1.209-0.542-1.209-1.21l0,0
								C192.308,155.854,192.85,155.312,193.518,155.312z"/>
							<path clip-path="url(#SVGID_11_)" fill="#FF2D20" d="M429.367,155.312h44.751c0.668,0,1.21,0.542,1.21,1.209l0,0
								c0,0.668-0.542,1.21-1.21,1.21h-44.751c-0.668,0-1.209-0.542-1.209-1.21l0,0
								C428.158,155.854,428.699,155.312,429.367,155.312z"/>
							<path opacity="0.3" clip-path="url(#SVGID_11_)" fill="#E4E4E7" enable-background="new    " d="M511.612,90h45.961
								c0.668,0,1.209,0.542,1.209,1.209l0,0c0,0.668-0.541,1.209-1.209,1.209h-45.961c-0.668,0-1.209-0.542-1.209-1.209l0,0
								C510.403,90.542,510.944,90,511.612,90z"/>
							<path opacity="0.3" clip-path="url(#SVGID_11_)" fill="#A1A1AA" enable-background="new    " d="M194.727,214.577H517.66
								c0.668,0,1.209,0.542,1.209,1.209l0,0c0,0.668-0.541,1.209-1.209,1.209H194.727c-0.668,0-1.209-0.542-1.209-1.209l0,0
								C193.518,215.119,194.059,214.577,194.727,214.577z"/>
							<path opacity="0.3" clip-path="url(#SVGID_11_)" fill="#A1A1AA" enable-background="new    " d="M194.727,226.672H469.28
								c0.668,0,1.21,0.542,1.21,1.209l0,0c0,0.668-0.542,1.209-1.21,1.209H194.727c-0.668,0-1.209-0.542-1.209-1.209l0,0
								C193.518,227.213,194.059,226.672,194.727,226.672z"/>
							<path opacity="0.3" clip-path="url(#SVGID_11_)" fill="#A1A1AA" enable-background="new    " d="M194.727,238.767H494.68
								c0.668,0,1.21,0.542,1.21,1.209l0,0c0,0.668-0.542,1.209-1.21,1.209H194.727c-0.668,0-1.209-0.542-1.209-1.209l0,0
								C193.518,239.308,194.059,238.767,194.727,238.767z"/>
							<path opacity="0.3" clip-path="url(#SVGID_11_)" fill="#A1A1AA" enable-background="new    " d="M194.727,250.862h289.068
								c0.668,0,1.209,0.542,1.209,1.209l0,0c0,0.668-0.541,1.209-1.209,1.209H194.727c-0.668,0-1.209-0.542-1.209-1.209l0,0
								C193.518,251.403,194.059,250.862,194.727,250.862z"/>
							<path opacity="0.3" clip-path="url(#SVGID_11_)" fill="#A1A1AA" enable-background="new    " d="M194.727,262.957h306
								c0.668,0,1.209,0.542,1.209,1.209l0,0c0,0.668-0.541,1.209-1.209,1.209h-306c-0.668,0-1.209-0.542-1.209-1.209l0,0
								C193.518,263.498,194.059,262.957,194.727,262.957z"/>
							<path opacity="0.3" clip-path="url(#SVGID_11_)" fill="#A1A1AA" enable-background="new    " d="M194.727,275.051H353.17
								c0.668,0,1.21,0.542,1.21,1.209l0,0c0,0.668-0.542,1.209-1.21,1.209H194.727c-0.668,0-1.209-0.542-1.209-1.209l0,0
								C193.518,275.593,194.059,275.051,194.727,275.051z"/>
							<path clip-path="url(#SVGID_11_)" fill="none" stroke="#52525B" stroke-width="0.5" d="M192.308,101.792H589.02"/>
							<path clip-path="url(#SVGID_11_)" fill="#D4D4D8" d="M208.674,91.3c-0.263,0.003-0.526-0.027-0.781-0.091
								c-0.209-0.058-0.409-0.147-0.591-0.266c-0.155-0.105-0.293-0.232-0.41-0.378c-0.103-0.135-0.182-0.287-0.235-0.448
								l0.615-0.213c0.086,0.238,0.246,0.442,0.455,0.584c0.232,0.162,0.515,0.242,0.849,0.242c0.41,0,0.73-0.08,0.964-0.242
								c0.22-0.14,0.353-0.384,0.348-0.645c0.004-0.239-0.113-0.464-0.311-0.599c-0.246-0.174-0.524-0.298-0.819-0.364l-0.584-0.152
								c-0.231-0.058-0.454-0.147-0.661-0.265c-0.19-0.115-0.354-0.271-0.478-0.455c-0.12-0.202-0.181-0.433-0.174-0.667
								c0-0.48,0.155-0.855,0.463-1.123c0.313-0.273,0.763-0.41,1.35-0.41c0.348,0,0.649,0.058,0.902,0.174
								c0.253,0.111,0.457,0.256,0.614,0.433c0.162,0.172,0.276,0.359,0.341,0.562l-0.606,0.211
								c-0.091-0.246-0.263-0.454-0.486-0.591c-0.248-0.152-0.535-0.228-0.826-0.219c-0.338,0-0.609,0.083-0.812,0.249
								c-0.198,0.164-0.308,0.411-0.296,0.667c0,0.242,0.079,0.431,0.236,0.562c0.156,0.127,0.36,0.22,0.613,0.28l0.584,0.145
								c0.517,0.121,0.911,0.323,1.185,0.606c0.277,0.278,0.416,0.579,0.416,0.902c0,0.278-0.07,0.534-0.212,0.767
								c-0.154,0.238-0.373,0.427-0.63,0.545C209.425,91.235,209.083,91.3,208.674,91.3L208.674,91.3z M213.12,91.3
								c-0.369,0-0.696-0.083-0.979-0.25c-0.282-0.171-0.513-0.414-0.668-0.705c-0.161-0.32-0.242-0.674-0.234-1.032
								c0-0.39,0.079-0.733,0.234-1.031c0.318-0.603,0.951-0.973,1.632-0.955c0.353,0,0.659,0.088,0.917,0.265
								c0.259,0.172,0.458,0.415,0.6,0.728c0.142,0.313,0.212,0.682,0.212,1.107h-3.132l0.151-0.128c0,0.302,0.053,0.564,0.16,0.781
								c0.103,0.208,0.263,0.381,0.462,0.5c0.197,0.113,0.422,0.168,0.675,0.168c0.239,0.008,0.475-0.058,0.675-0.19
								c0.188-0.127,0.331-0.294,0.433-0.501l0.523,0.266c-0.095,0.195-0.226,0.37-0.386,0.515c-0.163,0.15-0.353,0.266-0.561,0.341
								C213.621,91.26,213.384,91.3,213.12,91.3z M211.891,89.04l-0.159-0.121h2.616l-0.16,0.129c0-0.242-0.047-0.452-0.144-0.629
								c-0.088-0.17-0.222-0.313-0.387-0.411c-0.17-0.098-0.365-0.147-0.562-0.143c-0.207,0-0.404,0.048-0.591,0.144
								c-0.182,0.096-0.335,0.236-0.447,0.409C211.943,88.604,211.885,88.82,211.891,89.04L211.891,89.04z M217.935,91.209
								l-0.03-0.622v-1.381c0-0.297-0.033-0.543-0.098-0.735c-0.053-0.179-0.162-0.336-0.311-0.448
								c-0.165-0.107-0.358-0.16-0.554-0.151c-0.188-0.005-0.373,0.039-0.538,0.128c-0.158,0.093-0.285,0.23-0.364,0.395
								l-0.546-0.211c0.097-0.177,0.213-0.329,0.349-0.455c0.137-0.132,0.299-0.232,0.478-0.296c0.199-0.074,0.41-0.11,0.622-0.106
								c0.354,0,0.645,0.071,0.872,0.213c0.232,0.137,0.408,0.341,0.524,0.615c0.116,0.267,0.171,0.601,0.167,1.001l-0.007,2.055
								H217.935z M216.798,91.3c-0.445,0-0.793-0.101-1.047-0.302c-0.247-0.208-0.371-0.494-0.371-0.859
								c0-0.383,0.127-0.677,0.379-0.879c0.258-0.207,0.617-0.311,1.077-0.311h1.085v0.508h-0.948c-0.354,0-0.607,0.058-0.758,0.175
								c-0.149,0.122-0.231,0.307-0.22,0.5c-0.007,0.184,0.075,0.359,0.22,0.472c0.146,0.11,0.352,0.166,0.614,0.166
								c0.218,0,0.406-0.044,0.568-0.137c0.161-0.095,0.29-0.234,0.373-0.401c0.091-0.177,0.136-0.385,0.136-0.622h0.259
								c0,0.515-0.117,0.928-0.35,1.236C217.582,91.148,217.243,91.3,216.798,91.3z M219.8,89.154c0-0.41,0.078-0.741,0.235-0.994
								c0.157-0.257,0.356-0.447,0.599-0.568c0.248-0.127,0.509-0.19,0.781-0.19v0.569c-0.223,0-0.437,0.039-0.645,0.113
								c-0.198,0.068-0.372,0.192-0.501,0.357c-0.13,0.167-0.197,0.395-0.197,0.684L219.8,89.154L219.8,89.154z M219.466,91.209
								v-3.792h0.606v3.792H219.466z M223.72,91.3c-0.374,0-0.705-0.083-0.993-0.25c-0.286-0.168-0.52-0.413-0.676-0.705
								c-0.161-0.298-0.242-0.641-0.242-1.032c0-0.39,0.079-0.733,0.234-1.031c0.162-0.298,0.387-0.532,0.675-0.699
								c0.289-0.172,0.617-0.258,0.986-0.258c0.364,0,0.69,0.085,0.979,0.25c0.289,0.167,0.509,0.403,0.66,0.706l-0.554,0.25
								c-0.096-0.197-0.25-0.361-0.44-0.469c-0.199-0.119-0.427-0.18-0.659-0.175c-0.233-0.004-0.462,0.059-0.66,0.181
								c-0.187,0.122-0.336,0.292-0.448,0.509c-0.109,0.229-0.163,0.481-0.158,0.735c0,0.278,0.053,0.526,0.158,0.744
								c0.111,0.212,0.264,0.379,0.456,0.501c0.197,0.121,0.42,0.181,0.667,0.181c0.481,0.006,0.919-0.278,1.108-0.721l0.554,0.25
								c-0.142,0.312-0.372,0.575-0.661,0.758C224.418,91.209,224.089,91.3,223.72,91.3z M226.131,91.209V85.9h0.607v5.31H226.131z
								 M228.802,91.209v-1.941h0.606v1.941H228.802z M228.802,89.268c0-0.375-0.046-0.66-0.137-0.857
								c-0.065-0.173-0.192-0.316-0.357-0.401c-0.161-0.078-0.337-0.117-0.515-0.114c-0.334,0-0.595,0.119-0.781,0.355
								c-0.183,0.233-0.273,0.563-0.273,0.994h-0.296c0-0.399,0.058-0.744,0.175-1.032c0.103-0.266,0.282-0.496,0.515-0.66
								c0.239-0.157,0.52-0.236,0.805-0.228c0.292,0,0.55,0.061,0.772,0.182c0.23,0.125,0.412,0.323,0.517,0.563
								c0.126,0.257,0.187,0.596,0.182,1.016v0.182L228.802,89.268L228.802,89.268z M512.266,82.743l1.729-4.233h0.538l-1.754,4.233
								H512.266z M512.211,82.743l-1.754-4.233h0.539l1.724,4.233H512.211z M515.159,82.743V78.51h2.503v0.466h-1.989v1.367h1.814
								v0.459h-1.814v1.476h2.002v0.466H515.159z M518.737,82.743V78.51h1.379c0.273,0,0.516,0.055,0.726,0.164
								c0.423,0.211,0.686,0.646,0.678,1.119c0,0.25-0.065,0.472-0.193,0.665c-0.13,0.193-0.305,0.347-0.526,0.46
								c-0.233,0.111-0.49,0.167-0.75,0.163h-0.798v1.663H518.737L518.737,82.743z M521.127,82.743l-1.017-1.736l0.405-0.266
								l1.173,2.002H521.127z M519.252,80.608h0.938c0.152,0,0.29-0.034,0.411-0.103c0.251-0.15,0.404-0.421,0.405-0.713
								c0-0.242-0.085-0.438-0.254-0.587c-0.178-0.158-0.41-0.24-0.647-0.229h-0.853V80.608z M523.878,82.815
								c-0.234,0-0.441-0.024-0.623-0.072c-0.314-0.08-0.596-0.26-0.798-0.514c-0.082-0.107-0.146-0.228-0.188-0.357l0.49-0.169
								c0.069,0.189,0.196,0.352,0.362,0.465c0.186,0.129,0.411,0.194,0.678,0.194c0.326,0,0.581-0.064,0.768-0.194
								c0.176-0.111,0.281-0.306,0.278-0.514c0.003-0.19-0.09-0.37-0.248-0.478c-0.196-0.139-0.418-0.237-0.653-0.29l-0.466-0.121
								c-0.184-0.046-0.361-0.117-0.525-0.212c-0.157-0.097-0.284-0.218-0.381-0.363c-0.097-0.161-0.145-0.345-0.14-0.532
								c0-0.383,0.122-0.681,0.369-0.895c0.249-0.218,0.608-0.326,1.076-0.326c0.278,0,0.518,0.046,0.72,0.139
								c0.201,0.088,0.364,0.203,0.49,0.345c0.122,0.127,0.215,0.28,0.271,0.448l-0.483,0.169c-0.072-0.196-0.209-0.362-0.387-0.472
								c-0.198-0.122-0.428-0.183-0.659-0.176c-0.271,0-0.486,0.067-0.647,0.2c-0.158,0.13-0.245,0.328-0.235,0.532
								c0,0.193,0.062,0.342,0.187,0.448c0.125,0.1,0.288,0.175,0.49,0.224l0.466,0.115c0.411,0.097,0.726,0.258,0.943,0.484
								c0.222,0.221,0.332,0.462,0.332,0.72c0.002,0.215-0.057,0.427-0.169,0.611c-0.123,0.189-0.297,0.34-0.502,0.435
								C524.477,82.764,524.205,82.815,523.878,82.815L523.878,82.815z M526.238,82.743V78.51h0.514v4.233H526.238z M529.682,82.815
								c-0.38,0.007-0.754-0.089-1.083-0.278c-0.313-0.185-0.568-0.453-0.737-0.774c-0.183-0.351-0.273-0.742-0.267-1.137
								c0-0.432,0.087-0.811,0.26-1.137c0.169-0.32,0.422-0.588,0.732-0.774c0.311-0.185,0.67-0.278,1.076-0.278
								c0.407,0,0.767,0.094,1.076,0.284c0.314,0.185,0.56,0.444,0.732,0.774c0.174,0.327,0.26,0.704,0.26,1.131
								s-0.086,0.807-0.26,1.137c-0.164,0.321-0.416,0.59-0.726,0.774C530.439,82.723,530.085,82.815,529.682,82.815L529.682,82.815
								z M529.682,82.35c0.302,0,0.568-0.073,0.798-0.218c0.229-0.149,0.41-0.353,0.538-0.611c0.133-0.258,0.199-0.557,0.199-0.895
								c0-0.335-0.066-0.631-0.199-0.889c-0.123-0.251-0.313-0.462-0.55-0.61c-0.24-0.152-0.521-0.23-0.805-0.224
								c-0.303,0-0.569,0.075-0.805,0.224c-0.233,0.145-0.417,0.348-0.55,0.61c-0.133,0.258-0.199,0.554-0.199,0.889
								c0,0.338,0.066,0.637,0.199,0.895s0.319,0.462,0.557,0.611C529.104,82.277,529.375,82.35,529.682,82.35z M532.574,82.743
								V78.51h0.521l2.521,3.399V78.51h0.514v4.233h-0.514l-2.528-3.417v3.417H532.574z"/>
							
								<path clip-path="url(#SVGID_11_)" fill="none" stroke="#D4D4D8" stroke-width="0.5" stroke-linecap="round" stroke-linejoin="round" d="
								M196.975,90.382l1.483,1.483 M196.975,90.382c-1.058,1.077-2.789,1.092-3.866,0.034s-1.092-2.789-0.034-3.865
								c0.011-0.012,0.022-0.023,0.034-0.034c1.077-1.058,2.808-1.043,3.866,0.034C198.02,87.614,198.02,89.319,196.975,90.382z"/>
							<g clip-path="url(#SVGID_11_)">
								<path fill="#D4D4D8" d="M575.112,85.867c-0.937,0-1.834,0.373-2.495,1.034c-1.377,1.378-1.376,3.611,0.002,4.988
									c1.378,1.376,3.611,1.375,4.987-0.002c1.377-1.378,1.376-3.611-0.002-4.988C576.943,86.238,576.047,85.867,575.112,85.867z
									 M575.112,86.573c1.558,0.002,2.819,1.265,2.821,2.822c-0.002,1.558-1.264,2.82-2.821,2.822V86.573z"/>
							</g>
						</g>
					</g>
					<g>
						<path fill="#262626" d="M-166.909,335.526c0,0,221.336,102.406,452.348,102.406s452.348-102.406,452.348-102.406v451.138
							h-904.695V335.526z"/>
					</g>
				</g>
			</g>
		</g>
	</g>
</g>
<g>
	<path fill="#FFFFFF" d="M70.228,73.329h-3.366v11.064c0,0.637-0.142,1.11-0.426,1.418c-0.284,0.308-0.651,0.462-1.102,0.462
		c-0.457,0-0.83-0.156-1.117-0.468c-0.288-0.312-0.431-0.782-0.431-1.413V73.329h-3.366c-0.526,0-0.917-0.116-1.174-0.348
		s-0.384-0.539-0.384-0.919c0-0.395,0.133-0.707,0.4-0.935s0.653-0.343,1.158-0.343h9.807c0.534,0,0.93,0.118,1.19,0.353
		s0.389,0.544,0.389,0.925s-0.131,0.688-0.395,0.919S70.754,73.329,70.228,73.329z"/>
	<path fill="#FFFFFF" d="M79.547,84.674c-0.686,0.534-1.349,0.934-1.99,1.2s-1.359,0.4-2.156,0.4c-0.727,0-1.366-0.144-1.917-0.431
		s-0.975-0.677-1.272-1.169c-0.298-0.492-0.447-1.025-0.447-1.6c0-0.776,0.246-1.437,0.737-1.984
		c0.492-0.547,1.167-0.914,2.026-1.101c0.18-0.042,0.627-0.135,1.34-0.281s1.325-0.279,1.833-0.4
		c0.509-0.121,1.062-0.269,1.657-0.441c-0.035-0.748-0.186-1.297-0.452-1.647c-0.267-0.35-0.819-0.524-1.657-0.524
		c-0.721,0-1.262,0.101-1.626,0.301c-0.364,0.201-0.675,0.502-0.935,0.904c-0.26,0.402-0.443,0.667-0.551,0.795
		c-0.107,0.128-0.337,0.192-0.691,0.192c-0.318,0-0.594-0.102-0.826-0.306c-0.232-0.205-0.348-0.466-0.348-0.785
		c0-0.499,0.177-0.983,0.53-1.454c0.354-0.471,0.904-0.859,1.652-1.164s1.68-0.458,2.795-0.458c1.247,0,2.227,0.147,2.94,0.442
		s1.217,0.76,1.512,1.397c0.294,0.638,0.441,1.482,0.441,2.535c0,0.665-0.002,1.229-0.005,1.693s-0.009,0.98-0.016,1.548
		c0,0.534,0.088,1.089,0.265,1.667c0.177,0.579,0.265,0.951,0.265,1.117c0,0.291-0.137,0.556-0.41,0.795s-0.583,0.358-0.93,0.358
		c-0.291,0-0.579-0.137-0.862-0.411C80.167,85.59,79.866,85.193,79.547,84.674z M79.36,80.57c-0.416,0.152-1.02,0.313-1.813,0.483
		c-0.793,0.17-1.342,0.295-1.646,0.374c-0.305,0.08-0.596,0.236-0.873,0.468c-0.277,0.232-0.416,0.556-0.416,0.971
		c0,0.43,0.163,0.795,0.488,1.096c0.326,0.301,0.751,0.452,1.278,0.452c0.561,0,1.079-0.123,1.553-0.369
		c0.475-0.246,0.822-0.563,1.044-0.951c0.256-0.429,0.384-1.136,0.384-2.119V80.57z"/>
	<path fill="#FFFFFF" d="M94.154,82.565c0,0.783-0.19,1.453-0.571,2.01c-0.381,0.558-0.944,0.98-1.688,1.268
		s-1.65,0.431-2.716,0.431c-1.019,0-1.891-0.156-2.618-0.468c-0.727-0.312-1.264-0.701-1.61-1.168
		c-0.346-0.468-0.52-0.937-0.52-1.408c0-0.312,0.111-0.578,0.333-0.8s0.502-0.333,0.841-0.333c0.298,0,0.526,0.073,0.686,0.218
		c0.159,0.145,0.312,0.35,0.457,0.613c0.291,0.505,0.639,0.883,1.044,1.132s0.958,0.374,1.657,0.374
		c0.568,0,1.034-0.126,1.397-0.379c0.364-0.252,0.545-0.542,0.545-0.867c0-0.499-0.188-0.862-0.566-1.091s-0.999-0.447-1.865-0.655
		c-0.977-0.242-1.771-0.497-2.384-0.763s-1.103-0.618-1.47-1.055s-0.55-0.973-0.55-1.61c0-0.568,0.169-1.104,0.509-1.61
		c0.339-0.505,0.84-0.909,1.501-1.21c0.661-0.301,1.459-0.452,2.395-0.452c0.734,0,1.394,0.076,1.979,0.229
		c0.585,0.152,1.073,0.357,1.465,0.613c0.391,0.256,0.689,0.541,0.894,0.852c0.204,0.312,0.306,0.617,0.306,0.914
		c0,0.326-0.109,0.592-0.327,0.8c-0.218,0.208-0.528,0.312-0.93,0.312c-0.291,0-0.539-0.083-0.743-0.25
		c-0.205-0.166-0.438-0.416-0.702-0.748c-0.214-0.277-0.467-0.499-0.758-0.665c-0.291-0.167-0.686-0.25-1.184-0.25
		c-0.513,0-0.938,0.109-1.278,0.327c-0.339,0.218-0.509,0.49-0.509,0.816c0,0.298,0.125,0.542,0.374,0.732
		c0.25,0.19,0.585,0.348,1.008,0.473c0.422,0.125,1.004,0.277,1.745,0.457c0.88,0.215,1.598,0.471,2.156,0.769
		c0.558,0.298,0.98,0.649,1.268,1.055C94.01,81.583,94.154,82.045,94.154,82.565z"/>
	<path fill="#FFFFFF" d="M103.618,84.975l-2.504-4.114l-1.538,1.455v2.254c0,0.547-0.144,0.968-0.431,1.262
		c-0.287,0.294-0.618,0.441-0.992,0.441c-0.437,0-0.779-0.146-1.029-0.437c-0.249-0.291-0.374-0.72-0.374-1.288V72.457
		c0-0.63,0.121-1.11,0.364-1.439c0.242-0.329,0.588-0.493,1.039-0.493c0.436,0,0.782,0.149,1.039,0.447s0.384,0.737,0.384,1.319
		v6.877l3.189-3.345c0.395-0.416,0.696-0.7,0.904-0.852c0.208-0.152,0.461-0.229,0.759-0.229c0.353,0,0.647,0.113,0.883,0.338
		s0.353,0.507,0.353,0.847c0,0.416-0.384,0.97-1.153,1.662l-1.506,1.382l2.909,4.571c0.215,0.339,0.369,0.598,0.462,0.774
		c0.093,0.177,0.14,0.345,0.14,0.504c0,0.45-0.123,0.805-0.369,1.065c-0.246,0.26-0.57,0.39-0.972,0.39
		c-0.346,0-0.613-0.094-0.8-0.281S103.937,85.467,103.618,84.975z"/>
	<path fill="#FFFFFF" d="M117.353,82.565c0,0.783-0.19,1.453-0.571,2.01c-0.381,0.558-0.944,0.98-1.688,1.268
		s-1.65,0.431-2.716,0.431c-1.019,0-1.891-0.156-2.618-0.468c-0.727-0.312-1.264-0.701-1.61-1.168
		c-0.346-0.468-0.52-0.937-0.52-1.408c0-0.312,0.111-0.578,0.333-0.8s0.502-0.333,0.841-0.333c0.298,0,0.526,0.073,0.686,0.218
		c0.159,0.145,0.312,0.35,0.457,0.613c0.291,0.505,0.639,0.883,1.044,1.132s0.958,0.374,1.657,0.374
		c0.568,0,1.034-0.126,1.397-0.379c0.364-0.252,0.545-0.542,0.545-0.867c0-0.499-0.188-0.862-0.566-1.091s-0.999-0.447-1.865-0.655
		c-0.977-0.242-1.771-0.497-2.384-0.763s-1.103-0.618-1.47-1.055s-0.55-0.973-0.55-1.61c0-0.568,0.169-1.104,0.509-1.61
		c0.339-0.505,0.84-0.909,1.501-1.21c0.661-0.301,1.459-0.452,2.395-0.452c0.734,0,1.394,0.076,1.979,0.229
		c0.585,0.152,1.073,0.357,1.465,0.613c0.391,0.256,0.689,0.541,0.894,0.852c0.204,0.312,0.306,0.617,0.306,0.914
		c0,0.326-0.109,0.592-0.327,0.8c-0.218,0.208-0.528,0.312-0.93,0.312c-0.291,0-0.539-0.083-0.743-0.25
		c-0.205-0.166-0.438-0.416-0.702-0.748c-0.214-0.277-0.467-0.499-0.758-0.665c-0.291-0.167-0.686-0.25-1.184-0.25
		c-0.513,0-0.938,0.109-1.278,0.327c-0.339,0.218-0.509,0.49-0.509,0.816c0,0.298,0.125,0.542,0.374,0.732
		c0.25,0.19,0.585,0.348,1.008,0.473c0.422,0.125,1.004,0.277,1.745,0.457c0.88,0.215,1.598,0.471,2.156,0.769
		c0.558,0.298,0.98,0.649,1.268,1.055C117.208,81.583,117.353,82.045,117.353,82.565z"/>
</g>
<path fill="#FFFFFF" d="M23.814,66.176c0.566,0.509,0.612,1.372,0.103,1.938l-4.116,4.573c-0.251,0.28-0.606,0.446-0.983,0.452
	c-0.377,0.006-0.737-0.137-1.006-0.4l-2.292-2.287c-0.532-0.538-0.532-1.406,0-1.943c0.531-0.538,1.406-0.538,1.938,0l1.263,1.263
	l3.15-3.499c0.509-0.566,1.372-0.611,1.938-0.103L23.814,66.176z M23.814,75.322c0.566,0.509,0.612,1.372,0.103,1.938l-4.116,4.573
	c-0.251,0.28-0.606,0.446-0.983,0.452c-0.377,0.006-0.737-0.137-1.006-0.4l-2.292-2.286c-0.538-0.538-0.538-1.406,0-1.938
	c0.537-0.532,1.406-0.538,1.938,0l1.263,1.263l3.15-3.498c0.509-0.566,1.372-0.612,1.938-0.103H23.814z M27.924,69.48
	c0-1.012,0.818-1.83,1.83-1.83h12.804c1.012,0,1.829,0.817,1.829,1.83c0,1.012-0.817,1.829-1.829,1.829H29.754
	C28.742,71.31,27.924,70.492,27.924,69.48z M27.924,78.626c0-1.012,0.818-1.829,1.83-1.829h12.804c1.012,0,1.829,0.817,1.829,1.829
	c0,1.012-0.817,1.83-1.829,1.83H29.754C28.742,80.456,27.924,79.638,27.924,78.626z M24.266,87.772c0-1.012,0.817-1.829,1.83-1.829
	h16.462c1.012,0,1.829,0.817,1.829,1.829s-0.817,1.83-1.829,1.83H26.096C25.083,89.602,24.266,88.784,24.266,87.772z M17.864,85.028
	c1.516,0,2.744,1.229,2.744,2.744c0,1.516-1.229,2.744-2.744,2.744c-1.515,0-2.744-1.229-2.744-2.744
	C15.12,86.257,16.349,85.028,17.864,85.028z"/>
</svg>
